P1
50 50
00000000000000000000000000000000000000000000000000
00000000000000000000000000000000000000000000000000
00000000000000000000000000000000000000000000000000
00000000000000000000000000000000000000000000000000
00000000000000000000000000000000000010000000000000
00000000000000000010000000000000000001011111111100
00000000000001111010000000000000000000000011111100
00000000000000101010000000000000000010000100000000
00000000000000011010000000000000000000001000000000
00000000000000001010000000000000000011110000000000
00000000000000000010000000000000000010000000000000
00000000000000000000000000000000000000000000000000
00000000000000000000000000000000000000000000000000
00000000000000000000000000000000000000000000000000
00000000000000000000000000000000000000000000000000
01110000000000001111111111111111111111111111111100
00100000000000000100000000000000001000000000000010
00010000000000000100000000000000001000000000000010
00001111100000000110000000000000001000000000000010
00000010000000000011000000000000001000000000000010
00000101000000000001000000000000001000000000000010
00001000100000000000100000000000001000000000000010
00010000000000000000111110000000001110000000000010
00100000000000000000001111000000000000000000000010
01000000000000000000001001100000000000000000000010
00000000000000000000001100000000000000000000000010
00000000000000000000000011111111000000000000000010
00000000000000000000000000000000000000000000000010
00000000000000000000000000000000000000000000000000
00000000000000000000000000000000000000000000000000
00000000000000000000000000000000000000000000000000
00000000000000000000000000000000000000000000000000
00000000000000000000000000000000000000000000000000
00000000000000000000000000000000000000000000000000
00000000000000000000000000000000000000000000000000
00000000000000000000000000000000000000000000000000
00000000000000000000000000000000000000000000000000
00000000001000000000000000000000000000000000000000
00000000001000000000000000000000000000000000000000
00000000000000000000000000000000000000000000000000
00000000000000000000000000000000000000000000000000
00000000000000000000000000000000000000000000000000
00000000000000000000000000000000000000000000000000
00000000000000000000000000000000000000000000000000
00000000000000000000000000000000000000000000000000
00000000000000000000000000000000000000000000000000
00000000000000000000000000000000000000000000000000
00000000000000000000000000000000000000000000000000
00000000000000000000000000000000000000000000000000
00000000000000000000000000000000000000000000000000
